<svg width="24" height="32" viewBox="0 0 24 32" fill="none" xmlns="http://www.w3.org/2000/svg">
<path fill-rule="evenodd" clip-rule="evenodd" d="M12.8642 7.76219L15.4516 10.3496L12.8642 12.937V7.76219ZM12.8642 23.6955L15.4516 21.1081L12.8642 18.5207V23.6955ZM10.092 15.7465L4.47289 10.092L6.09886 8.46605L10.5718 12.937V2.21777L18.7055 10.3496L13.344 15.7485L18.7409 21.1455L10.6091 29.2792V18.5207L6.09886 22.9916L4.47289 21.3657L10.092 15.7465ZM11.6059 31.4577C18.4834 31.4577 23.2138 28.2038 23.2138 15.7092C23.2138 3.2539 18.4834 0 11.6079 0C4.73242 0 0 3.25391 0 15.7485C0 28.2018 4.73045 31.4577 11.6059 31.4577Z" fill="white"/>
</svg>
