<svg width="289" height="394" viewBox="0 0 289 394" fill="none" xmlns="http://www.w3.org/2000/svg">
<g clip-path="url(#clip0_74_279)">
<rect x="63.8477" width="161.302" height="67.2093" rx="10.0814" fill="#D7E3E5"/>
<path d="M144.5 67.2101V33.6055" stroke="#2B6B87" stroke-width="5.0407" stroke-linecap="square"/>
<path d="M124.337 36.1532C122.945 36.1532 121.816 35.0248 121.816 33.6328C121.816 32.2409 122.945 31.1125 124.337 31.1125V36.1532ZM124.337 31.1125L146.18 31.1125V36.1532H124.337V31.1125Z" fill="#2B6B87"/>
<path d="M144.497 33.6328L166.34 33.6328" stroke="#2B6B87" stroke-width="5.0407" stroke-linecap="round"/>
</g>
<path d="M0 134.423C0 106.584 22.568 84.0156 50.407 84.0156H238.593C266.432 84.0156 289 106.584 289 134.423V194.911H0V134.423Z" fill="url(#paint0_linear_74_279)"/>
<path d="M0 305.808C0 333.647 22.568 356.215 50.407 356.215H238.593C266.432 356.215 289 333.647 289 305.808V208.354H0V305.808Z" fill="#DDB486"/>
<rect x="67.2109" y="369.652" width="154.581" height="23.5233" rx="3.36047" fill="#DDB486"/>
<defs>
<linearGradient id="paint0_linear_74_279" x1="144.309" y1="84.0156" x2="144.679" y2="194.911" gradientUnits="userSpaceOnUse">
<stop offset="0.51" stop-color="#DDDDDD"/>
<stop offset="0.9" stop-color="#DDB486"/>
<stop offset="1" stop-color="#DDB486"/>
</linearGradient>
<clipPath id="clip0_74_279">
<rect x="63.8477" width="161.302" height="67.2093" rx="10.0814" fill="white"/>
</clipPath>
</defs>
</svg>
